<svg width="28" height="26" viewBox="0 0 28 26" fill="none" xmlns="http://www.w3.org/2000/svg">
<path d="M15.3315 2.33396L16.7759 6.77935C17.231 8.18023 18.5365 9.12869 20.0094 9.12869H24.6836C26.0398 9.12869 26.6037 10.8642 25.5065 11.6613L21.725 14.4087C20.5334 15.2745 20.0347 16.8092 20.4899 18.21L21.9343 22.6554C22.3534 23.9453 20.8771 25.0178 19.7799 24.2207L15.9984 21.4733C14.8068 20.6075 13.1932 20.6075 12.0015 21.4733L8.22003 24.2207C7.12283 25.0178 5.64656 23.9453 6.06565 22.6554L7.51005 18.21C7.96522 16.8092 7.46658 15.2745 6.27493 14.4087L2.49344 11.6613C1.39625 10.8642 1.96013 9.12869 3.31635 9.12869H7.99051C9.46348 9.12869 10.7689 8.18023 11.2241 6.77935L12.6685 2.33395C13.0876 1.04412 14.9124 1.04412 15.3315 2.33396Z" stroke="black" stroke-width="2"/>
</svg>
